<svg width="155" height="156" viewBox="0 0 155 156" fill="none" xmlns="http://www.w3.org/2000/svg">
<path d="M25.5 46.7297V22.5H56.6682M127.786 45.7857L148 61.5V149H77.25H6.5V61.5L25.5 46.7297M25.5 46.7297V84.9982M56.6682 22.5L77.25 6.5L97.8318 22.5M56.6682 22.5H97.8318M127.786 45.7857V22.5H97.8318M127.786 45.7857V86.5M6.5 61.5L25.5 84.9982M148 149L103.302 116.78L77.25 98L6.5 149M148 61.5L103.302 116.78M25.5 84.9982L51.375 116.999M45 76.5H105M45 48H105" stroke="black" stroke-width="13" stroke-linejoin="round"/>
</svg>
